<svg width="24" height="25" viewBox="0 0 24 25" fill="none" xmlns="http://www.w3.org/2000/svg">
<g clip-path="url(#clip0_4563_36970)">
<path d="M23.3346 17.5164C23.3346 18.2237 23.0537 18.902 22.5536 19.4021C22.0535 19.9022 21.3752 20.1831 20.668 20.1831H3.33464C2.62739 20.1831 1.94911 19.9022 1.44902 19.4021C0.94892 18.902 0.667969 18.2237 0.667969 17.5164V4.39177C0.667969 2.91911 4.52864 0.183105 6.0013 0.183105H19.7513C21.814 0.183105 23.3346 1.72444 23.3346 3.76644V17.5164Z" fill="#C1694F"/>
<path d="M22 20.183C22 20.8903 21.719 21.5685 21.219 22.0686C20.7189 22.5687 20.0406 22.8497 19.3333 22.8497H4.66667C3.95942 22.8497 3.28115 22.5687 2.78105 22.0686C2.28095 21.5685 2 20.8903 2 20.183V4.18302C2 1.43702 1.986 1.51635 5.33333 1.51635H19.3333C20.0406 1.51635 20.7189 1.7973 21.219 2.2974C21.719 2.7975 22 3.47577 22 4.18302V20.183Z" fill="#CCD6DD"/>
<path d="M20.668 20.8496C20.668 21.38 20.4573 21.8888 20.0822 22.2638C19.7071 22.6389 19.1984 22.8496 18.668 22.8496H2.66797C2.13754 22.8496 1.62883 22.6389 1.25376 22.2638C0.878682 21.8888 0.667969 21.38 0.667969 20.8496V4.84961C0.667969 4.31918 0.878682 3.81047 1.25376 3.4354C1.62883 3.06032 2.13754 2.84961 2.66797 2.84961H18.668C19.1984 2.84961 19.7071 3.06032 20.0822 3.4354C20.4573 3.81047 20.668 4.31918 20.668 4.84961V20.8496Z" fill="#E1E8ED"/>
<path d="M20.6654 21.5164C20.6654 22.2237 20.3844 22.902 19.8843 23.4021C19.3842 23.9022 18.7059 24.1831 17.9987 24.1831H3.9987C3.29145 24.1831 2.61318 23.9022 2.11308 23.4021C1.61298 22.902 1.33203 22.2237 1.33203 21.5164V6.84977C1.33203 6.14253 1.61298 5.46425 2.11308 4.96415C2.61318 4.46406 3.29145 4.18311 3.9987 4.18311H17.9987C18.7059 4.18311 19.3842 4.46406 19.8843 4.96415C20.3844 5.46425 20.6654 6.14253 20.6654 6.84977V21.5164Z" fill="#C1694F"/>
<path d="M19.332 21.5166C19.332 22.2238 19.0511 22.9021 18.551 23.4022C18.0509 23.9023 17.3726 24.1833 16.6654 24.1833H3.9987C3.29145 24.1833 2.61318 23.9023 2.11308 23.4022C1.61298 22.9021 1.33203 22.2238 1.33203 21.5166V8.18327C1.33203 7.47602 1.61298 6.79775 2.11308 6.29765C2.61318 5.79755 3.29145 5.5166 3.9987 5.5166H16.8887C18.3614 5.5166 19.332 6.48727 19.332 7.95993V21.5166Z" fill="#D99E82"/>
<path d="M4.0013 4.18311C2.87597 4.18311 2.8473 2.90177 3.33464 2.34977C3.8893 1.72244 4.7513 1.51644 6.2933 1.51644H7.33463V0.183105H5.52197C2.87597 0.183105 0.667969 1.84977 0.667969 3.76644V21.5164C0.667969 22.2237 0.94892 22.902 1.44902 23.4021C1.94911 23.9022 2.62739 24.1831 3.33464 24.1831H4.66797V4.18311H4.0013Z" fill="#C1694F"/>
<path d="M16.6654 12.1833C16.6654 12.5369 16.5249 12.876 16.2748 13.1261C16.0248 13.3761 15.6857 13.5166 15.332 13.5166H8.66536C8.31174 13.5166 7.9726 13.3761 7.72256 13.1261C7.47251 12.876 7.33203 12.5369 7.33203 12.1833V10.8499C7.33203 10.4963 7.47251 10.1572 7.72256 9.90713C7.9726 9.65708 8.31174 9.5166 8.66536 9.5166H15.332C15.6857 9.5166 16.0248 9.65708 16.2748 9.90713C16.5249 10.1572 16.6654 10.4963 16.6654 10.8499V12.1833Z" fill="#E1E8ED"/>
</g>
<defs>
<clipPath id="clip0_4563_36970">
<rect width="24" height="24" fill="white" transform="translate(0 0.183105)"/>
</clipPath>
</defs>
</svg>
