<svg width="33" height="33" viewBox="0 0 33 33" fill="none" xmlns="http://www.w3.org/2000/svg">
<g clip-path="url(#clip0_4244-35669)">
<path d="M22.9372 8.08558C23.0872 7.99308 23.2822 8.03058 23.3822 8.17558C23.9072 8.93558 25.3047 11.4681 24.7747 16.2931C24.4297 19.4256 22.6547 23.9481 22.0522 25.4131C22.032 25.4625 22.0002 25.5063 21.9594 25.5408C21.9186 25.5752 21.8701 25.5992 21.818 25.6108C21.7659 25.6223 21.7117 25.6211 21.6602 25.6071C21.6087 25.5931 21.5613 25.5669 21.5222 25.5306C20.9172 24.9781 19.4397 24.0456 16.7497 24.6706C15.8972 24.8681 13.2372 27.5331 11.0997 25.1331C9.77967 23.6506 10.7422 22.7781 10.7522 20.6456C10.7647 17.9006 8.00217 17.0581 7.09967 16.6081C6.86967 16.4931 6.85217 16.1756 7.06717 16.0356C8.11467 15.3556 9.58467 15.0356 11.4322 13.5656C13.7772 11.7031 13.7972 9.95808 14.2772 9.35308C14.5197 9.04808 16.4297 8.19058 16.4297 8.19058C16.4297 8.19058 17.7647 8.54558 17.8297 8.57058L20.2122 9.62308C20.3072 9.65808 20.4147 9.64808 20.5022 9.59308L22.9372 8.08558Z" fill="url(#paint0_linear_4244-35669)"/>
<path d="M23.5405 18.4908C24.893 14.3033 23.913 10.8633 23.913 10.8633C23.913 10.8633 19.943 12.2658 19.933 12.4283C19.9255 12.5908 17.353 18.7058 17.353 18.7058C17.353 18.7058 15.4805 23.7708 13.1055 26.1258C14.808 25.9408 16.1855 24.7983 16.7505 24.6683C18.523 24.2558 19.7655 24.5208 20.583 24.9083C21.0305 24.1958 22.5905 21.4358 23.5405 18.4908Z" fill="url(#paint1_radial_4244-35669)"/>
<path d="M17.9217 10.9773L16.6542 10.4023C16.6542 10.4023 14.6442 14.9898 13.6267 16.5723C12.6067 18.1548 10.7517 20.6473 10.7517 20.6473C10.7542 22.7798 9.77671 23.6523 11.0992 25.1348C11.1867 25.2348 11.2792 25.3223 11.3692 25.4048C12.2167 24.3873 13.6167 22.3998 14.6667 20.9098C17.5042 16.8823 17.9217 10.9773 17.9217 10.9773Z" fill="url(#paint2_linear_4244-35669)"/>
<path d="M26.8145 6.16C26.562 5.4725 25.327 3.5 25.327 3.5L23.892 4.19L24.462 6.655L21.8945 8.7925C20.833 8.54712 19.7348 8.50302 18.657 8.6625C17.922 8.6075 15.832 8.6325 15.042 10.555L13.897 13.28L12.9695 13.6025C12.712 14.14 13.557 14.625 14.0945 14.88C14.632 15.135 15.0945 14.9375 15.5345 14.37C15.797 14.03 16.407 13.0775 16.852 12.37C16.952 13.1275 17.022 14.0525 17.027 15.1775L19.1095 16.18L21.6445 16.2875C22.5695 14.195 23.047 12.6025 23.2895 11.475C24.127 10.53 26.297 8.075 26.577 7.685C26.922 7.205 27.067 6.8475 26.8145 6.16Z" fill="url(#paint3_linear_4244-35669)"/>
<path d="M11.3317 9.72399C11.4792 9.45399 11.9417 9.26899 12.2742 9.16649C12.4767 9.10399 12.6917 9.20899 12.7717 9.40149L13.2642 10.5815C13.3242 10.7265 13.2967 10.894 13.1917 11.014L12.7292 11.534C12.8992 11.764 13.1117 11.949 13.3567 12.0965C13.7742 12.349 14.1917 12.339 14.2342 12.374C14.7642 12.8015 15.1592 13.3015 14.8492 14.1215C14.5417 14.9365 13.4817 14.6865 13.4817 14.6865C13.4817 14.6865 12.3942 13.9215 11.6942 12.2615C11.4667 11.729 11.0242 10.284 11.3317 9.72399Z" fill="url(#paint4_linear_4244-35669)"/>
<path d="M14.1004 20.7838C14.1004 20.7838 12.7154 22.0713 12.6129 22.6488C12.4429 23.6063 13.2529 24.4913 13.6729 24.1488C14.5854 23.4088 14.8329 22.4913 15.2854 21.8263C15.7354 21.1613 14.7004 20.1763 14.1004 20.7838Z" fill="url(#paint5_linear_4244-35669)"/>
<path d="M18.7798 16.7632L18.7173 16.9332C18.6048 16.5182 18.3398 16.1382 17.9798 15.9457C17.9798 15.9457 16.5348 15.4682 16.1723 16.1407C16.1723 16.1407 14.4398 18.8707 14.1648 19.6307C13.8873 20.3907 13.8973 21.0107 14.5473 21.4132C15.0723 21.7357 15.7773 21.5807 16.4223 20.8482C16.7123 20.5182 17.3823 19.5107 17.8923 18.7282C17.9723 18.6032 18.1648 18.7007 18.1123 18.8407L15.0823 26.8182L16.4348 27.6782C16.4348 27.6782 20.4598 21.2457 21.0523 20.0157C21.6448 18.7857 21.8548 16.9807 21.8548 16.9807L18.7798 16.7632Z" fill="url(#paint6_linear_4244-35669)"/>
<path opacity="0.4" d="M16.2402 16.0456L16.7402 15.2306C16.8102 15.0731 16.9902 15.0081 17.1352 15.0906C18.7902 16.0356 19.6702 16.2881 21.5527 16.1756C21.7252 16.1656 21.8677 16.3206 21.8552 16.5081L21.7902 17.3856C21.7902 17.3856 21.1002 17.7756 18.9927 17.3281C17.4977 17.0106 16.2402 16.0456 16.2402 16.0456Z" fill="#212121"/>
<path d="M21.7019 17.3072C19.5819 17.4197 18.2544 17.0372 16.4044 16.0547C16.2594 15.9772 16.2019 15.7997 16.2719 15.6497L16.5694 15.0197C16.6444 14.8622 16.8369 14.7972 16.9919 14.8797C18.7644 15.8247 19.7069 16.0747 21.7269 15.9647C21.9119 15.9547 22.0669 16.1122 22.0494 16.2972L21.9919 17.0222C21.9794 17.1772 21.8544 17.2997 21.7019 17.3072Z" fill="url(#paint7_linear_4244-35669)"/>
<path d="M19.8223 16.8204L19.2448 17.2029C19.1298 17.2779 18.9773 17.2479 18.9023 17.1329L18.5198 16.5554C18.5018 16.5283 18.4893 16.498 18.4831 16.4661C18.4769 16.4342 18.477 16.4014 18.4835 16.3695C18.49 16.3377 18.5028 16.3075 18.521 16.2806C18.5392 16.2537 18.5626 16.2307 18.5898 16.2129L19.1673 15.8304C19.1944 15.8124 19.2247 15.7999 19.2566 15.7936C19.2885 15.7874 19.3213 15.7875 19.3531 15.794C19.385 15.8006 19.4152 15.8133 19.4421 15.8315C19.469 15.8498 19.492 15.8732 19.5098 15.9004L19.8923 16.4779C19.9673 16.5904 19.9373 16.7429 19.8223 16.8204Z" fill="#FDD835"/>
<path d="M18.5508 11.3231C18.8708 11.1831 19.4658 10.9881 20.3233 10.9556C20.3783 10.9531 20.4308 10.9531 20.4808 10.9531C21.2533 10.9531 21.7258 11.1631 21.9683 11.3106L20.2333 13.1756L18.5508 11.3231Z" fill="#E53935"/>
<path d="M20.4828 11.2128C20.9553 11.2128 21.3028 11.2978 21.5453 11.3903L20.2378 12.7953L19.0003 11.4328C19.3178 11.3328 19.7653 11.2353 20.3328 11.2153C20.3853 11.2128 20.4328 11.2128 20.4828 11.2128ZM20.4828 10.6953C20.4278 10.6953 20.3728 10.6953 20.3153 10.6978C18.8728 10.7503 18.1328 11.2478 18.1328 11.2478L20.2328 13.5603L22.3528 11.2803C22.3503 11.2803 21.8053 10.6953 20.4828 10.6953Z" fill="#FDD835"/>
<path opacity="0.42" d="M18.1328 11.2484C18.1328 11.2484 18.8728 10.7509 20.3153 10.6984C21.7578 10.6459 22.3528 11.2809 22.3528 11.2809L20.2328 13.5609L18.1328 11.2484Z" fill="#0D47A1" fill-opacity="0.15"/>
<path d="M15.3942 24.4711C15.3942 24.4711 14.9917 26.8861 13.9992 28.4661C13.5142 29.1086 12.7242 29.6361 12.3142 30.7386C12.1267 31.2461 13.2217 31.7286 14.0742 31.2611C14.5867 30.9786 15.3617 29.2536 15.3617 29.2536C16.0467 28.0086 18.0867 26.0236 18.0867 26.0236C17.6942 24.2011 15.3942 24.4711 15.3942 24.4711Z" fill="url(#paint8_linear_4244-35669)"/>
<path d="M14.2793 9.3511C14.2793 9.3511 15.7018 7.5561 18.2418 8.0686C20.1293 8.4486 19.7318 9.6611 19.7318 9.6611C19.7318 9.6611 18.7793 9.6686 17.9218 9.4711C17.0543 9.2711 16.2818 8.8686 15.8218 8.9161L14.2793 9.3511Z" fill="#ED4132"/>
<path d="M19.7324 9.6639C19.7324 9.6639 19.8499 8.43641 20.6799 8.13891C21.5099 7.84141 23.3699 7.56641 23.3699 7.56641C23.3699 7.56641 22.7874 8.70641 22.3374 9.0664C21.3874 9.8239 19.7324 9.6639 19.7324 9.6639Z" fill="#ED4132"/>
<path opacity="0.4" d="M15.2109 10.2039C15.2109 10.2039 16.0259 9.46891 17.2659 9.76641C19.0509 10.1939 19.7309 9.66391 19.7309 9.66391C19.7309 9.66391 21.0434 10.1364 22.2859 9.53891C23.1384 9.12891 23.3709 7.56641 23.3709 7.56641L23.0784 7.89641C23.0784 7.89641 21.9834 9.08891 20.8934 9.41141C20.0959 9.64891 19.7334 9.66391 19.7334 9.66391C19.7334 9.66391 16.7934 8.65641 16.1234 8.93641C15.4534 9.21641 15.2109 10.2039 15.2109 10.2039Z" fill="#212121"/>
<path d="M24.1002 6.29956C24.0652 6.06706 23.6227 2.51456 22.7927 2.32956C22.7927 2.32956 22.3527 2.33456 21.9027 2.37456C21.5477 2.38706 21.3127 2.29206 21.2452 2.06956C21.1627 1.89956 21.2477 1.51956 21.3902 1.09456C21.5327 0.667059 21.7877 0.614559 21.9902 0.609559C22.3827 0.599559 23.0527 0.997059 23.9727 1.79206C25.7427 3.32206 26.7102 5.62956 26.7102 5.62956C26.6777 5.62956 25.5377 7.18706 24.1002 6.29956Z" fill="url(#paint9_linear_4244-35669)"/>
<path d="M19.6722 7.88719L18.8672 7.90969L18.8897 8.53469C18.8897 9.32469 19.7297 9.65969 19.7297 9.65969C19.7297 9.65969 20.4972 9.24719 20.4972 8.52219L20.4747 7.86719L19.6722 7.88719Z" fill="#E59600"/>
<path d="M21.5473 5.45324L21.0298 5.46324L18.2273 5.52074L17.7098 5.53074C17.2973 5.53824 16.9648 5.90574 16.9748 6.34824C16.9848 6.79074 17.3298 7.14324 17.7423 7.13324L18.2598 7.12324L21.0623 7.06574L21.5798 7.05574C21.9923 7.04824 22.3248 6.68074 22.3148 6.23824C22.3073 5.79824 21.9623 5.44574 21.5473 5.45324Z" fill="#E59600"/>
<path d="M19.562 2.65661C18.3395 2.68161 17.2345 4.01161 17.2745 5.89161C17.312 7.76161 18.497 8.66411 19.687 8.63911C20.8745 8.61411 22.022 7.66661 21.9845 5.79411C21.9445 3.91411 20.7845 2.63161 19.562 2.65661Z" fill="#FFCA28"/>
<path d="M18.5331 6.52827C18.7236 6.52446 18.8748 6.36134 18.8708 6.16394C18.8669 5.96654 18.7093 5.8096 18.5188 5.81341C18.3283 5.81722 18.177 5.98034 18.181 6.17774C18.1849 6.37514 18.3426 6.53208 18.5331 6.52827Z" fill="#404040"/>
<path d="M20.8397 6.48139C21.0302 6.47758 21.1814 6.31447 21.1775 6.11707C21.1735 5.91966 21.0159 5.76273 20.8254 5.76654C20.6349 5.77035 20.4837 5.93346 20.4876 6.13087C20.4916 6.32827 20.6492 6.4852 20.8397 6.48139Z" fill="#404040"/>
<path d="M19.9473 6.77844C19.9402 6.77559 19.9326 6.7739 19.9248 6.77344L19.4298 6.78344C19.4223 6.78344 19.4148 6.78594 19.4073 6.78844C19.3623 6.80844 19.3398 6.85344 19.3623 6.90344C19.3848 6.95344 19.4873 7.09094 19.6848 7.08594C19.8848 7.08094 19.9798 6.94094 19.9998 6.89094C20.0198 6.84094 19.9923 6.79594 19.9473 6.77844Z" fill="#E59600"/>
<path d="M20.2745 7.42507C20.0545 7.56507 19.317 7.58507 19.0895 7.45757C18.9595 7.38507 18.8295 7.50507 18.887 7.62007C18.942 7.73257 19.352 7.99006 19.6995 7.98006C20.047 7.97006 20.437 7.69257 20.4845 7.57507C20.5345 7.46007 20.402 7.34507 20.2745 7.42507Z" fill="#795548"/>
<path d="M19.02 5.54433C18.9475 5.43682 18.7825 5.28182 18.4725 5.28932C18.1625 5.29682 18.0075 5.46433 17.9425 5.57683C17.9125 5.62683 17.9225 5.68183 17.945 5.71683C17.965 5.74683 18.025 5.77683 18.0875 5.74683C18.15 5.71683 18.275 5.63683 18.4825 5.62933C18.6925 5.62433 18.82 5.69933 18.885 5.72433C18.95 5.74933 19.0075 5.71683 19.025 5.68433C19.0475 5.64683 19.0525 5.59183 19.02 5.54433Z" fill="#6D4C41"/>
<path d="M21.3443 5.47401C21.2718 5.36651 21.1068 5.21151 20.7968 5.21901C20.4868 5.22901 20.3318 5.39401 20.2668 5.50651C20.2368 5.55651 20.2468 5.61151 20.2693 5.64651C20.2893 5.67651 20.3493 5.70651 20.4118 5.67651C20.4743 5.64651 20.5993 5.56651 20.8068 5.55901C21.0168 5.55401 21.1443 5.62901 21.2093 5.65401C21.2743 5.67901 21.3318 5.64651 21.3493 5.61401C21.3613 5.59245 21.3672 5.568 21.3663 5.54331C21.3655 5.51863 21.3578 5.49466 21.3443 5.47401Z" fill="#6D4C41"/>
<path d="M19.5513 2.27429C19.5488 2.27429 19.5488 2.27429 19.5513 2.27429C19.5488 2.27429 19.5488 2.27429 19.5513 2.27429C16.3538 2.37429 17.1038 6.00679 17.1038 6.00679C17.1038 6.00679 17.2563 6.37929 17.3263 6.54429C17.3363 6.56679 17.3713 6.56429 17.3763 6.53929C17.4363 6.23179 17.6538 5.14429 17.7688 4.81179C17.8363 4.61679 18.0338 4.49929 18.2388 4.52929C18.5538 4.57679 19.0538 4.63429 19.6038 4.62179H19.6138C20.1638 4.60679 20.6613 4.52429 20.9738 4.45929C21.1763 4.41679 21.3813 4.52429 21.4588 4.71679C21.5913 5.04179 21.8613 6.11179 21.9388 6.41929C21.9463 6.44429 21.9813 6.44679 21.9888 6.42179L22.1838 5.87679C22.1863 5.87429 22.7463 2.20929 19.5513 2.27429Z" fill="#543930"/>
<path d="M22.1857 5.87436C22.1857 5.87436 22.7457 2.20686 19.5482 2.27436L19.4032 2.28186C19.3082 2.28936 19.2157 2.29686 19.1282 2.31186H19.1257C19.1182 2.31186 19.1132 2.31436 19.1082 2.31436C16.4282 2.72186 17.1057 6.00686 17.1057 6.00686L17.3282 6.54186C17.3382 6.56436 17.3732 6.56186 17.3782 6.53686C17.4382 6.22686 17.6557 5.14186 17.7707 4.81186C17.8382 4.61686 18.0357 4.49936 18.2407 4.52936C18.5557 4.57686 19.0557 4.63436 19.6057 4.62186H19.6157C20.1657 4.60686 20.6632 4.52436 20.9757 4.45936C21.1782 4.41686 21.3832 4.52436 21.4607 4.71686C21.5932 5.04186 21.8657 6.11936 21.9432 6.42186C21.9507 6.44686 21.9832 6.44936 21.9932 6.42436C22.0507 6.25686 22.1857 5.87436 22.1857 5.87436Z" fill="url(#paint10_radial_4244-35669)"/>
</g>
<defs>
<linearGradient id="paint0_linear_4244-35669" x1="20.8214" y1="12.3301" x2="13.7012" y2="21.8671" gradientUnits="userSpaceOnUse">
<stop stop-color="#A52714"/>
<stop offset="0.529" stop-color="#D23F31"/>
<stop offset="1" stop-color="#ED4132"/>
</linearGradient>
<radialGradient id="paint1_radial_4244-35669" cx="0" cy="0" r="1" gradientUnits="userSpaceOnUse" gradientTransform="translate(19.6491 15.9115) rotate(20.5788) scale(4.6448 9.00078)">
<stop stop-color="#212121"/>
<stop offset="0.999" stop-color="#212121" stop-opacity="0"/>
</radialGradient>
<linearGradient id="paint2_linear_4244-35669" x1="12.0307" y1="13.8478" x2="15.704" y2="20.1898" gradientUnits="userSpaceOnUse">
<stop/>
<stop offset="0.999" stop-color="#212121" stop-opacity="0"/>
</linearGradient>
<linearGradient id="paint3_linear_4244-35669" x1="19.9313" y1="10.425" x2="19.8883" y2="15.3445" gradientUnits="userSpaceOnUse">
<stop stop-color="#42A5F5"/>
<stop offset="1" stop-color="#1E88E5"/>
</linearGradient>
<linearGradient id="paint4_linear_4244-35669" x1="13.5207" y1="13.2255" x2="11.8812" y2="9.66724" gradientUnits="userSpaceOnUse">
<stop stop-color="#A52714"/>
<stop offset="0.529" stop-color="#D23F31"/>
<stop offset="1" stop-color="#DB4437"/>
</linearGradient>
<linearGradient id="paint5_linear_4244-35669" x1="14.7127" y1="21.0783" x2="13.4627" y2="23.0158" gradientUnits="userSpaceOnUse">
<stop offset="0.001" stop-color="#851F10"/>
<stop offset="0.841" stop-color="#A52714"/>
</linearGradient>
<linearGradient id="paint6_linear_4244-35669" x1="18.3773" y1="18.0889" x2="16.09" y2="23.2242" gradientUnits="userSpaceOnUse">
<stop stop-color="#42A5F5"/>
<stop offset="1" stop-color="#1E88E5"/>
</linearGradient>
<linearGradient id="paint7_linear_4244-35669" x1="16.6071" y1="15.6844" x2="22.0122" y2="16.8657" gradientUnits="userSpaceOnUse">
<stop stop-color="#D32F2F"/>
<stop offset="0.23" stop-color="#F44336"/>
<stop offset="0.742" stop-color="#F44336"/>
<stop offset="1" stop-color="#D32F2F"/>
</linearGradient>
<linearGradient id="paint8_linear_4244-35669" x1="17.4537" y1="25.1654" x2="11.8752" y2="30.7439" gradientUnits="userSpaceOnUse">
<stop stop-color="#A52714"/>
<stop offset="0.529" stop-color="#D23F31"/>
<stop offset="1" stop-color="#ED4132"/>
</linearGradient>
<linearGradient id="paint9_linear_4244-35669" x1="25.5222" y1="6.04856" x2="22.07" y2="0.827059" gradientUnits="userSpaceOnUse">
<stop stop-color="#A52714"/>
<stop offset="0.529" stop-color="#D23F31"/>
<stop offset="1" stop-color="#DB4437"/>
</linearGradient>
<radialGradient id="paint10_radial_4244-35669" cx="0" cy="0" r="1" gradientUnits="userSpaceOnUse" gradientTransform="translate(19.6271 5.30304) rotate(-1.4898) scale(2.68035 3.02381)">
<stop offset="0.794" stop-color="#6D4C41" stop-opacity="0"/>
<stop offset="1" stop-color="#6D4C41"/>
</radialGradient>
<clipPath id="clip0_4244-35669">
<rect width="32" height="32" fill="white" transform="translate(0.929688 0.0703125)"/>
</clipPath>
</defs>
</svg>
