<svg width="33" height="33" viewBox="0 0 33 33" fill="none" xmlns="http://www.w3.org/2000/svg">
<g clip-path="url(#clip0)">
<rect width="32" height="32" transform="translate(0.839844 0.931641)" fill="white"/>
<path d="M20.4876 16.7442L32.0783 1.69336H30.3664L18.7373 16.7442H20.4876Z" fill="#0B6780"/>
<path d="M0.839844 0.931641V32.9316H32.8398V0.931641H0.839844ZM32.0779 32.1699H1.60175V29.1224H2.9454C2.96222 29.0048 3.71503 27.9244 3.81792 27.821C3.91974 27.716 6.50258 24.3221 6.50258 24.3221H11.0325L11.5627 26.1574C11.5627 26.1574 10.2403 27.8856 9.88549 28.3029C9.67497 28.5491 9.07284 29.1224 9.07284 29.1224H11.2036C11.2036 29.1224 11.2771 28.946 11.4478 28.6289C11.6195 28.3124 12.2226 27.5801 12.2226 27.5801C12.2226 27.5801 12.4862 28.4001 12.5071 28.5386C12.5339 28.7103 12.6058 29.1224 12.6058 29.1224H14.7603C14.7603 29.1224 14.8364 28.9586 15.0081 28.6421C15.1782 28.325 15.8024 27.641 15.8024 27.641C15.8024 27.641 16.0417 28.4001 16.0633 28.5387C16.0901 28.7103 16.1615 29.1224 16.1615 29.1224H18.9154C18.9154 29.1224 18.5039 28.4085 18.4109 28.1701C18.3574 28.0378 17.4954 25.3395 17.4954 25.3395L18.213 24.3221H22.7776C22.7776 24.3221 23.817 27.6661 23.941 28.1082C24.022 28.4405 24.0672 28.7805 24.0758 29.1224H26.9495C26.5143 28.8143 25.4197 24.9468 24.8885 23.4607L23.4963 18.6357C23.4285 18.4519 23.3771 17.7879 23.3771 17.7879H21.1534C21.0342 18.1049 20.831 18.3963 20.693 18.6524C20.5218 18.9696 17.697 22.6737 17.0759 23.4606C16.9846 23.5777 16.9316 23.6428 16.9316 23.6397C16.9316 23.6323 16.9122 23.563 16.8843 23.4606C16.782 23.1042 16.5719 22.3881 16.5719 22.3881C16.5719 22.3881 18.979 19.3291 19.2246 19.0178C19.9559 18.0928 20.3732 17.7879 20.3732 17.7879H18.0939C18.0751 18.0351 17.9959 18.2739 17.8634 18.4834C17.7542 18.6514 15.8885 20.9902 15.8885 20.9902C15.8885 20.9902 15.3021 18.874 15.1908 18.5317C15.122 18.29 15.0919 18.039 15.1015 17.7879H12.3659C12.4688 17.9049 12.7848 18.686 12.7848 18.686L14.1335 22.8375L13.3445 23.8465C13.3109 23.7961 11.884 19.1144 11.8231 18.9191C11.7549 18.6981 11.6824 17.7879 11.6824 17.7879H9.34056C9.34056 17.7879 8.88593 18.7774 8.57044 19.2357C8.44024 19.4252 6.95564 21.4148 5.37337 23.4607C3.61263 25.8067 1.69599 28.1859 1.65449 28.2163C1.63595 28.2324 1.61834 28.2495 1.60175 28.2675V1.69368H32.0779V32.1699ZM9.91279 20.7702C10.0157 21.1796 10.6052 22.9966 10.6052 22.9966H7.56143C7.56143 22.9966 9.48333 20.6568 9.80985 19.9544C9.8456 19.8767 9.85291 19.9371 9.85291 19.9743C9.8401 20.2411 9.86021 20.5084 9.91279 20.7702ZM13.871 25.435L14.6811 24.3841C14.6811 24.3841 15.153 25.8151 15.2302 25.8981L14.3923 27.0488L13.871 25.435ZM21.607 20.7702C21.7098 21.1796 22.2999 22.9966 22.2999 22.9966H19.2561C19.2561 22.9966 21.178 20.6568 21.5045 19.9544C21.5402 19.8767 21.5471 19.9371 21.5471 19.9743C21.5343 20.2411 21.5544 20.5084 21.607 20.7702Z" fill="#0B6780"/>
</g>
<defs>
<clipPath id="clip0">
<rect width="32" height="32" fill="white" transform="translate(0.839844 0.931641)"/>
</clipPath>
</defs>
</svg>
