<svg width="192" height="29" viewBox="0 0 192 29" fill="none" xmlns="http://www.w3.org/2000/svg">
<g clip-path="url(#clip0)">
<path d="M9.57675 5.56045L15.2084 13.848L21.343 5.56045H9.57675ZM15.0567 21.8469L0.839844 0.933105H30.5203L15.0567 21.8469Z" fill="white"/>
<path d="M5.39893 24.3047H26.1297V28.932H5.39893V24.3047Z" fill="white"/>
<path d="M48.4658 24.2971V16.7922H41.2674V24.2971H36.9287V5.58984H41.2674V12.8805H48.4658V5.58984H52.8045V24.2971H48.4658Z" fill="white"/>
<path d="M58.1548 24.2971V5.58984H69.9969V9.56996H62.492V12.8805H69.3423V16.6866H62.492V20.3393H69.9969V24.2971H58.1548Z" fill="white"/>
<path d="M75.0947 24.2971V5.58984H79.4334V20.3393H86.9369V24.2971H75.0947Z" fill="white"/>
<path d="M90.7114 24.2971V5.58984H95.0501V20.3393H102.554V24.2971H90.7114Z" fill="white"/>
<path d="M114.623 9.16681C111.664 9.16681 109.67 11.5951 109.67 14.9577C109.67 18.3218 111.664 20.7501 114.623 20.7501C117.584 20.7501 119.578 18.2995 119.578 14.9577C119.578 11.6174 117.584 9.15937 114.623 9.15937V9.16681ZM114.548 24.6082C108.757 24.6082 105.05 20.445 105.05 14.9577C105.05 9.47183 108.931 5.27002 114.731 5.27002C120.53 5.27002 124.228 9.43314 124.228 14.9428C124.43 20.0805 120.431 24.4073 115.293 24.6096C115.044 24.6186 114.796 24.6186 114.548 24.6082Z" fill="white"/>
<path d="M133.582 24.608C131.349 24.5381 129.173 23.8775 127.281 22.6902L128.483 18.7636C130.004 19.884 131.829 20.5163 133.719 20.5744C135.241 20.5744 135.842 19.8602 135.842 18.9392C135.842 18.0182 135.354 17.3025 132.493 16.1538C129.197 14.8296 128.049 12.9117 128.049 10.6665C128.049 7.93323 130.271 5.27734 134.632 5.27734C136.476 5.2833 138.285 5.78472 139.868 6.73102L138.764 10.598C137.544 9.7321 136.114 9.20538 134.624 9.07593C133.042 9.07593 132.402 9.83625 132.402 10.598C132.402 11.8226 133.345 12.2332 135.698 13.2227C139.19 14.7076 140.264 16.3889 140.264 18.7859C140.24 21.7691 138.072 24.608 133.582 24.608Z" fill="white"/>
<path d="M144.677 24.2971V5.58984H149.016V24.2971H144.677Z" fill="white"/>
<path d="M170.28 13.7867V22.7215C168.136 23.9937 165.681 24.6468 163.187 24.6082C157.7 24.6082 153.361 20.6816 153.361 14.9577C153.361 9.23525 157.746 5.27002 163.407 5.27002C165.602 5.27002 167.761 5.82203 169.686 6.87546L167.875 10.369C166.584 9.69055 165.148 9.32899 163.688 9.31858C159.96 9.31858 157.973 11.6397 157.973 14.9354C157.973 18.5123 160.37 20.7277 163.438 20.7277C164.385 20.8006 165.334 20.6251 166.192 20.2174V17.4469H162.441V13.7867H170.28Z" fill="white"/>
<path d="M190.668 24.6545L179.381 14.5249V24.2974H175.074V5.33125L175.66 5.22412L186.794 15.2867V5.59014H191.133V24.6158L190.668 24.6545Z" fill="white"/>
</g>
<defs>
<clipPath id="clip0">
<rect width="190.294" height="28" fill="white" transform="translate(0.839844 0.931641)"/>
</clipPath>
</defs>
</svg>
