<svg width="154" height="29" viewBox="0 0 154 29" fill="none" xmlns="http://www.w3.org/2000/svg">
<path d="M27.812 28.7114V6.32501H31.1453V25.7868H35.3888V28.7114H27.812Z" fill="white"/>
<path d="M41.9291 19.4039C41.0804 19.9085 40.4835 20.2837 40.4835 21.2286V25.7557C40.5455 26.1321 40.7968 26.385 41.2071 26.3534C41.6142 26.2911 41.9291 26.0375 41.9291 25.6299V19.4039ZM44.9483 28.7115H42.1176C41.9291 28.3351 41.9291 27.8948 41.9291 27.4834H41.8656C41.2375 28.5245 40.7652 28.9316 39.5067 28.9316C38.1886 28.9316 37.4639 28.2104 37.4639 26.8557V20.8195C37.4639 17.1717 41.8359 19.0903 41.8359 14.5004C41.8359 13.9643 41.9606 12.7069 41.2375 12.7069C40.358 12.7069 40.5151 14.1555 40.5151 14.7821V17.1413H37.4639V13.5251C37.4639 11.6697 38.9106 10.5086 41.2071 10.5086C43.5024 10.5086 44.9483 11.6697 44.9483 13.5251V28.7115Z" fill="white"/>
<path d="M51.6338 28.5435V8.77174H58.2426V11.3537H54.5777V16.4349H58.1036V19.0189H54.5777V28.5435H51.6338Z" fill="white"/>
<path d="M63.3239 16.9615H63.8807C64.9076 16.9615 65.1302 16.4084 65.1302 15.6868V12.1045C65.1302 11.3537 64.6849 11.1327 64.0194 11.1327H63.3239V16.9615ZM60.3813 28.5435V8.77174H64.2682C66.6288 8.77174 68.0724 9.60417 68.0724 12.1596V14.9645C68.0724 16.4349 67.6554 17.6572 65.157 17.936V17.991C66.4623 18.1573 67.8505 18.6012 67.9613 20.4064C68.1289 23.0444 67.9613 25.8201 68.4337 28.5435H65.4912C64.9908 26.2678 65.1302 23.2956 65.1302 20.9894C65.1302 19.7956 64.6849 19.3242 63.3239 19.3806V28.5435H60.3813Z" fill="white"/>
<path d="M70.8213 28.5435V8.77174H77.3757V11.3537H73.7662V16.4349H77.2357V19.0189H73.7662V25.9602H77.4298V28.5435L70.8213 28.5435Z" fill="white"/>
<path d="M84.0672 8.77125L84.9007 14.4637C85.5676 18.1303 86.0387 21.9335 86.2885 25.6551H86.4004V24.599C86.4282 22.683 86.3164 20.7387 86.3164 18.8233V8.77125H88.7325V28.543H84.3725L82.9853 18.6571C82.5146 16.2128 82.3466 13.9936 82.0968 11.6581H81.986C81.986 12.5191 82.0407 13.3794 82.0683 14.2152V28.543H79.6519V8.77125H84.0672Z" fill="white"/>
<path d="M96.2301 15.9914V11.9648C96.2301 10.9658 95.9252 10.7422 95.3433 10.7422C94.7311 10.7422 94.4255 10.9658 94.4255 11.9648V25.3494C94.4255 26.35 94.7311 26.571 95.3433 26.571C95.9252 26.571 96.2301 26.35 96.2301 25.3494V21.0733H99.1737V25.5999C99.1737 28.1821 97.1475 28.9316 95.3137 28.9316C93.5095 28.9316 91.4819 28.1821 91.4819 25.5999V11.716C91.4819 9.13341 93.5095 8.38289 95.3137 8.38289C97.1475 8.38289 99.1737 9.13341 99.1737 11.716V15.9914H96.2301Z" fill="white"/>
<path d="M101.922 28.5435V8.77174H104.867V16.3527H106.504V8.77174H109.448V28.5435H106.504V18.9343H104.867V28.5435H101.922Z" fill="white"/>
<path d="M124.237 8.71255V11.3027H121.675V28.5415H118.723V11.3027H116.133V8.71255H124.237Z" fill="white"/>
<path d="M126.715 28.541V8.71206H133.287V11.3022H129.667V16.3994H133.148V18.9883H129.667V25.9513H133.343V28.541H126.715Z" fill="white"/>
<path d="M140.417 15.9536V11.9155C140.417 10.9137 140.11 10.6905 139.525 10.6905C138.912 10.6905 138.606 10.9137 138.606 11.9155V25.3391C138.606 26.3412 138.912 26.5636 139.525 26.5636C140.11 26.5636 140.417 26.3412 140.417 25.3391V21.0499H143.369V25.5905C143.369 28.1794 141.336 28.9316 139.497 28.9316C137.688 28.9316 135.655 28.1794 135.655 25.5905V11.6645C135.655 9.07561 137.688 8.32265 139.497 8.32265C141.336 8.32265 143.369 9.07561 143.369 11.6645V15.9536H140.417Z" fill="white"/>
<path d="M146.292 28.541V8.71206H149.245V16.3149H150.888V8.71206H153.84V28.541H150.888V18.9055H149.245V28.541H146.292Z" fill="white"/>
<path d="M3.28536 13.757L0.666016 15.435L1.48506 10.8L5.48068 10.88L10.8079 15.0715L13.8641 6.39029L11.4504 2.72926L13.2097 2.24539L14.6111 0.93141L16.1807 1.95414L18.2063 1.57088L17.9439 3.5687L17.6976 4.7664L19.6974 5.93655L17.1654 7.39565L17.0346 8.03312L19.0334 12.1805L21.1262 19.4736L17.9439 23.0346L15.5563 24.6549H14.8462L15.2907 27.6958L17.6485 28.9287H11.1895L11.7157 28.1547L10.798 27.9427L12.1074 26.8007L11.5406 24.6423L10.8079 24.6549L3.46407 18.7815L4.06507 18.4615L5.06211 18.4621L3.33861 17.3255L3.93876 17.0059H5.26393L3.28536 13.757Z" fill="white"/>
<path d="M13.0181 24.6554L14.026 27.5593L15.3467 28.0786L14.8459 24.6554H13.0181Z" fill="white"/>
<path d="M13.9352 6.18969L10.8081 15.0719V16.1582L11.4319 15.2825L14.3084 6.09725L13.9352 6.18969Z" fill="white"/>
<path d="M13.2098 2.24559L11.4507 2.72961L14.1032 6.75293L15.5564 4.96742L14.6232 0.931757L13.2098 2.24559Z" fill="white"/>
<path d="M3.33838 17.3257L9.75769 17.0469L3.93853 17.006L3.33838 17.3257Z" fill="white"/>
<path d="M3.33838 17.3259L10.8165 22.2363L10.7107 17.0063L3.33838 17.3259Z" fill="white"/>
<path d="M14.6109 5.13077L11.4316 15.2824L18.8283 18.0034L15.5562 4.96757L14.6109 5.13077Z" fill="white"/>
<path d="M9.88437 18.671L10.8081 18.7412V15.0716L5.48096 10.88L9.88437 18.671Z" fill="white"/>
<path d="M6.37509 18.8306L9.88438 18.6709L5.48097 10.88L1.48535 10.8L6.37509 18.8306Z" fill="white"/>
<path d="M0.666016 15.4355L3.28536 13.7574L1.48521 10.8005L0.666016 15.4355Z" fill="white"/>
<path d="M10.7983 27.9429L14.8462 28.9287H17.6487L14.2867 27.1706L12.1076 26.8009L10.7983 27.9429Z" fill="white"/>
<path d="M15.5561 4.96729L17.9437 3.56891L18.206 1.5711L16.1805 1.95435L14.6108 0.931623L15.5561 4.96729Z" fill="white"/>
<path d="M15.5562 4.96725L16.9139 8.62598L17.9438 3.56887L15.5562 4.96725Z" fill="white"/>
<path d="M17.4307 6.02637L19.6769 5.93694L17.6977 4.76679L17.4307 6.02637Z" fill="white"/>
<path d="M17.4612 5.9369L17.1655 7.396L19.6976 5.9369H17.4612Z" fill="white"/>
<path d="M3.46387 18.7817L10.8165 24.6553L10.8176 18.4618L3.46387 18.7817Z" fill="white"/>
<path d="M18.9515 18.671L17.9438 23.0347L21.126 19.4737L19.0333 12.1806L15.5562 4.96726L18.9515 18.671Z" fill="white"/>
<path d="M8.77783 16.7139L9.76611 18.4619H10.8348L10.798 15.5988L8.77783 16.7139Z" fill="white"/>
<path d="M10.8081 15.5987V24.6553H15.5565L17.9441 23.0348L11.4319 15.2823L10.8081 15.5987Z" fill="white"/>
<path d="M17.9438 23.0347L20.6468 18.671L11.4316 15.2821L17.9438 23.0347Z" fill="white"/>
<path d="M4.06502 18.4618L3.46387 18.7817L10.8077 18.4618H4.06502Z" fill="white"/>
<path d="M16.3965 5.41009C16.3965 5.62411 16.5686 5.79736 16.7812 5.79736C16.9926 5.79736 17.1631 5.62411 17.1631 5.41009C17.1631 5.19621 16.9926 5.02281 16.7812 5.02281C16.5686 5.02281 16.3965 5.19621 16.3965 5.41009Z" fill="#E0E0E0"/>
<path d="M11.5405 24.6425L12.2588 27.3652L13.0181 27.8641L14.846 28.9316L13.4918 24.6425H11.5405Z" fill="white"/>
<path d="M11.1895 28.9287H14.968L12.2588 27.365L11.1895 28.9287Z" fill="white"/>
<g opacity="0.800003">
<g opacity="0.800003">
<g opacity="0.800003">
<g opacity="0.800003">
<g opacity="0.800003">
<path opacity="0.800003" d="M14.846 24.6549H13.4917L13.7736 25.5444L14.846 24.6549Z" fill="white"/>
</g>
</g>
</g>
</g>
</g>
</svg>
