<svg width="1585" height="226" viewBox="0 0 1585 226" fill="none" xmlns="http://www.w3.org/2000/svg">
<path fill-rule="evenodd" clip-rule="evenodd" d="M1305.5 153.842L1327.15 52.4748H1352.93V224.935H1329.58L1332 112.038L1314.49 193.71H1296.5L1279 112.049L1281.43 224.946H1258.08V52.4633H1283.86L1305.5 153.83V153.842ZM1446.04 140.869V83.4699C1446.04 76.7373 1442.64 73.371 1435.82 73.371H1429.51C1422.7 73.371 1419.3 76.7373 1419.3 83.4699V140.869H1446.04ZM1419.3 224.935H1395.95V82.0158C1395.95 62.3218 1405.27 52.4748 1423.91 52.4748H1441.43C1460.07 52.4748 1469.39 62.3218 1469.39 82.0158V224.935H1446.04V161.754H1419.3V224.935ZM1560.81 135.831V52.4748H1584.15V224.935H1560.81V190.585L1535.76 112.038V224.935H1512.41V52.4748H1535.76L1560.81 135.831Z" fill="#E7205F"/>
<path fill-rule="evenodd" clip-rule="evenodd" d="M259.993 224.935V52.4752H317.868V73.3714H283.338V125.744H313.983V146.64H283.338V204.039H317.88V224.935H259.993ZM405.403 135.831V52.4752H428.748V224.935H405.403V190.585L380.35 112.038V224.935H357.005V52.4752H380.35L405.403 135.831ZM505.578 204.039H517.497C523.652 204.039 526.734 200.684 526.734 193.963V83.4589C526.734 76.7263 523.25 73.36 516.271 73.36H505.338C498.519 73.36 495.115 76.7263 495.115 83.4589V193.951C495.115 200.673 498.599 204.027 505.578 204.027V204.039ZM499.986 224.935C481.168 224.935 471.77 215.18 471.77 195.623V82.0276C471.77 62.3336 481.088 52.4866 499.734 52.4866H522.116C540.751 52.4866 550.079 62.3336 550.079 82.0276V195.646C550.079 215.191 540.682 224.958 521.875 224.958H499.986V224.935ZM668.741 52.4752L640.514 224.935H612.779L584.587 52.4752H607.691L626.647 184.104L645.625 52.4752H668.729H668.741ZM750.912 140.869V83.4703C750.912 76.7377 747.508 73.3714 740.701 73.3714H734.375C727.567 73.3714 724.175 76.7377 724.175 83.4703V140.869H750.912ZM724.163 224.935H700.818V82.0162C700.818 62.3222 710.136 52.4752 728.782 52.4752H746.293C764.939 52.4752 774.257 62.3222 774.257 82.0162V224.935H750.912V161.754H724.175V224.935H724.163ZM854.491 73.3829V224.935H831.146V73.3829H808.753V52.4752H876.851V73.3714H854.48L854.491 73.3829ZM1012.75 204.039H1024.67C1030.83 204.039 1033.92 200.684 1033.92 193.963V83.4589C1033.92 76.7263 1030.43 73.36 1023.46 73.36H1012.51C1005.7 73.36 1002.31 76.7263 1002.31 83.4589V193.951C1002.31 200.673 1005.78 204.027 1012.75 204.027V204.039ZM1007.17 224.935C988.361 224.935 978.952 215.18 978.952 195.623V82.0276C978.952 62.3336 988.269 52.4866 1006.92 52.4866H1029.3C1047.94 52.4866 1057.26 62.3336 1057.26 82.0276V195.646C1057.26 215.191 1047.86 224.958 1029.05 224.958H1007.17V224.935ZM1148.68 135.831V52.4752H1172.04V224.935H1148.68V190.585L1123.63 112.038V224.935H1100.28V52.4752H1123.63L1148.68 135.831Z" fill="#1A1919"/>
<path fill-rule="evenodd" clip-rule="evenodd" d="M944.627 70.2684C944.627 81.3749 935.504 90.3861 924.261 90.3861C921.603 90.4012 918.967 89.8927 916.505 88.8897C914.043 87.8867 911.803 86.4088 909.913 84.5406C908.022 82.6723 906.519 80.4503 905.489 78.0014C904.458 75.5525 903.921 72.9248 903.908 70.2684C903.908 59.1619 913.019 50.1508 924.261 50.1508C935.493 50.1508 944.627 59.1619 944.627 70.2684Z" fill="#DB305F"/>
<path fill-rule="evenodd" clip-rule="evenodd" d="M912.584 100.176V224.935H935.929V100.176C928.365 102.779 920.148 102.779 912.584 100.176Z" fill="#1A1919"/>
<path fill-rule="evenodd" clip-rule="evenodd" d="M935.929 52.4752H935.792L935.929 52.5668V52.4752ZM912.584 52.4752V52.5668L912.722 52.4752H912.584Z" fill="#FFFFFE"/>
<path fill-rule="evenodd" clip-rule="evenodd" d="M169.66 136.014H184.949C191.905 136.014 195.378 131.858 195.378 123.557V86.4014C195.378 78.0887 191.905 73.9209 184.949 73.9209H169.66V136.014ZM146.338 53.0704H191.974C209.772 53.0704 218.677 62.906 218.677 82.5542V124.988C218.677 140.01 214.07 149.525 204.832 153.521L224.052 225.198H201.956L183.722 155.674H169.649V225.187H146.338V53.0704ZM195.045 20.2547C195.045 31.3154 185.969 40.2923 174.76 40.2923C172.111 40.3088 169.483 39.8036 167.029 38.8055C164.575 37.8073 162.342 36.3358 160.457 34.475C158.572 32.6142 157.072 30.4005 156.044 27.9606C155.016 25.5206 154.479 22.9021 154.464 20.2547C154.476 17.6064 155.01 14.9864 156.037 12.5445C157.063 10.1027 158.561 7.88685 160.445 6.02376C162.328 4.16068 164.562 2.68687 167.016 1.68661C169.47 0.686356 172.098 0.179267 174.749 0.194342C185.969 0.194342 195.057 9.17114 195.057 20.2433" fill="#1A1919"/>
<path fill-rule="evenodd" clip-rule="evenodd" d="M146.351 53.0821V135.969C146.351 135.969 124.049 145.174 115.625 169.597C107.534 193.024 87.1574 217.802 68.6259 224.042C68.6259 224.042 80.8313 187.448 58.2313 167.8C35.6314 148.163 9.86831 143.056 35.6314 128.206C61.3944 113.355 67.7206 113.343 64.5575 112.462C60.936 111.443 0.379068 94.1647 0.837485 58.017C0.837485 58.017 23.8844 76.3141 55.5152 72.2952C87.146 68.2877 91.4551 52.6355 146.351 53.0821Z" fill="#E7205F"/>
<path fill-rule="evenodd" clip-rule="evenodd" d="M26.9216 134.777C32.0559 128.297 38.7259 133.701 57.6929 132.373C76.6714 131.033 89.6675 121.381 76.5453 116.652C65.635 112.713 64.9359 112.576 64.9359 112.576C64.9359 112.576 34.8752 124.736 26.9331 134.777" fill="#1A1919"/>
</svg>
