<svg width="17" height="17" viewBox="0 0 17 17" fill="none" xmlns="http://www.w3.org/2000/svg">
<g clip-path="url(#clip0)">
<path d="M10.9339 8.46949C10.9339 7.72545 10.6707 7.09021 10.1443 6.56376C9.61782 6.03732 8.98258 5.77409 8.23854 5.77409C7.49449 5.77409 6.85925 6.03732 6.33281 6.56376C5.80636 7.09021 5.54314 7.72545 5.54314 8.46949C5.54314 9.21353 5.80636 9.84878 6.33281 10.3752C6.85925 10.9017 7.49449 11.1649 8.23854 11.1649C8.98258 11.1649 9.61782 10.9017 10.1443 10.3752C10.6707 9.84878 10.9339 9.21353 10.9339 8.46949ZM12.3869 8.46949C12.3869 9.62065 11.9833 10.5998 11.1761 11.4071C10.3689 12.2143 9.3897 12.6179 8.23854 12.6179C7.08738 12.6179 6.10819 12.2143 5.30097 11.4071C4.49376 10.5998 4.09015 9.62065 4.09015 8.46949C4.09015 7.31833 4.49376 6.33914 5.30097 5.53193C6.10819 4.72471 7.08738 4.32111 8.23854 4.32111C9.3897 4.32111 10.3689 4.72471 11.1761 5.53193C11.9833 6.33914 12.3869 7.31833 12.3869 8.46949ZM13.524 4.15264C13.524 4.41938 13.4293 4.6475 13.2398 4.83702C13.0502 5.02654 12.8221 5.1213 12.5554 5.1213C12.2887 5.1213 12.0605 5.02654 11.871 4.83702C11.6815 4.6475 11.5867 4.41938 11.5867 4.15264C11.5867 3.88591 11.6815 3.65779 11.871 3.46827C12.0605 3.27875 12.2887 3.18399 12.5554 3.18399C12.8221 3.18399 13.0502 3.27875 13.2398 3.46827C13.4293 3.65779 13.524 3.88591 13.524 4.15264ZM8.23854 1.83629C8.1894 1.83629 7.92091 1.83453 7.43308 1.83102C6.94524 1.82751 6.57497 1.82751 6.32228 1.83102C6.06958 1.83453 5.7309 1.84506 5.30624 1.86261C4.88157 1.88016 4.52008 1.91526 4.22176 1.9679C3.92344 2.02054 3.6725 2.08547 3.46895 2.16268C3.11798 2.30307 2.80913 2.50663 2.5424 2.77336C2.27567 3.04009 2.07211 3.34894 1.93173 3.6999C1.85452 3.90346 1.78959 4.1544 1.73694 4.45272C1.6843 4.75104 1.6492 5.11253 1.63165 5.53719C1.61411 5.96186 1.60358 6.30054 1.60007 6.55323C1.59656 6.80593 1.59656 7.17619 1.60007 7.66403C1.60358 8.15187 1.60533 8.42036 1.60533 8.46949C1.60533 8.51863 1.60358 8.78711 1.60007 9.27495C1.59656 9.76279 1.59656 10.1331 1.60007 10.3858C1.60358 10.6384 1.61411 10.9771 1.63165 11.4018C1.6492 11.8265 1.6843 12.1879 1.73694 12.4863C1.78959 12.7846 1.85452 13.0355 1.93173 13.2391C2.07211 13.59 2.27567 13.8989 2.5424 14.1656C2.80913 14.4324 3.11798 14.6359 3.46895 14.7763C3.6725 14.8535 3.92344 14.9184 4.22176 14.9711C4.52008 15.0237 4.88157 15.0588 5.30624 15.0764C5.7309 15.0939 6.06958 15.1045 6.32228 15.108C6.57497 15.1115 6.94524 15.1115 7.43308 15.108C7.92091 15.1045 8.1894 15.1027 8.23854 15.1027C8.28767 15.1027 8.55616 15.1045 9.044 15.108C9.53183 15.1115 9.9021 15.1115 10.1548 15.108C10.4075 15.1045 10.7462 15.0939 11.1708 15.0764C11.5955 15.0588 11.957 15.0237 12.2553 14.9711C12.5536 14.9184 12.8046 14.8535 13.0081 14.7763C13.3591 14.6359 13.6679 14.4324 13.9347 14.1656C14.2014 13.8989 14.405 13.59 14.5453 13.2391C14.6226 13.0355 14.6875 12.7846 14.7401 12.4863C14.7928 12.1879 14.8279 11.8265 14.8454 11.4018C14.863 10.9771 14.8735 10.6384 14.877 10.3858C14.8805 10.1331 14.8805 9.76279 14.877 9.27495C14.8735 8.78711 14.8717 8.51863 14.8717 8.46949C14.8717 8.42036 14.8735 8.15187 14.877 7.66403C14.8805 7.17619 14.8805 6.80593 14.877 6.55323C14.8735 6.30054 14.863 5.96186 14.8454 5.53719C14.8279 5.11253 14.7928 4.75104 14.7401 4.45272C14.6875 4.1544 14.6226 3.90346 14.5453 3.6999C14.405 3.34894 14.2014 3.04009 13.9347 2.77336C13.6679 2.50663 13.3591 2.30307 13.0081 2.16268C12.8046 2.08547 12.5536 2.02054 12.2553 1.9679C11.957 1.91526 11.5955 1.88016 11.1708 1.86261C10.7462 1.84506 10.4075 1.83453 10.1548 1.83102C9.9021 1.82751 9.53183 1.82751 9.044 1.83102C8.55616 1.83453 8.28767 1.83629 8.23854 1.83629ZM16.3247 8.46949C16.3247 10.0769 16.3072 11.1895 16.2721 11.8072C16.2019 13.2672 15.7667 14.3973 14.9665 15.1975C14.1663 15.9977 13.0362 16.4328 11.5762 16.503C10.9585 16.5381 9.84595 16.5557 8.23854 16.5557C6.63112 16.5557 5.51857 16.5381 4.90088 16.503C3.44087 16.4328 2.31077 15.9977 1.51057 15.1975C0.710375 14.3973 0.275181 13.2672 0.204988 11.8072C0.169892 11.1895 0.152344 10.0769 0.152344 8.46949C0.152344 6.86208 0.169892 5.74953 0.204988 5.13183C0.275181 3.67182 0.710375 2.54172 1.51057 1.74153C2.31077 0.94133 3.44087 0.506138 4.90088 0.435946C5.51857 0.40085 6.63112 0.383301 8.23854 0.383301C9.84595 0.383301 10.9585 0.40085 11.5762 0.435946C13.0362 0.506138 14.1663 0.94133 14.9665 1.74153C15.7667 2.54172 16.2019 3.67182 16.2721 5.13183C16.3072 5.74953 16.3247 6.86208 16.3247 8.46949Z" fill="white"/>
</g>
<defs>
<clipPath id="clip0">
<rect width="16.1724" height="16.1724" fill="white" transform="translate(0.152344 0.383301)"/>
</clipPath>
</defs>
</svg>
