<svg width="17" height="16" viewBox="0 0 17 16" fill="none" xmlns="http://www.w3.org/2000/svg">
<g clip-path="url(#clip0)">
<path d="M4.07205 5.51058V15.8534H0.59751V5.51058H4.07205ZM4.29315 2.31692C4.30017 2.82484 4.12294 3.24927 3.76144 3.5902C3.39995 3.93114 2.9244 4.10161 2.33478 4.10161H2.31372C1.73814 4.10161 1.27487 3.93114 0.923906 3.5902C0.572943 3.24927 0.397461 2.82484 0.397461 2.31692C0.397461 1.80204 0.578207 1.37587 0.939699 1.03841C1.30119 0.700955 1.77324 0.532227 2.35584 0.532227C2.93843 0.532227 3.40522 0.700955 3.75618 1.03841C4.10714 1.37587 4.28613 1.80204 4.29315 2.31692ZM16.5698 9.92533V15.8534H13.1058V10.3219C13.1058 9.59136 12.9637 9.01907 12.6794 8.60508C12.3951 8.19109 11.9512 7.98409 11.3475 7.98409C10.9053 7.98409 10.535 8.10412 10.2367 8.34416C9.9384 8.58421 9.71553 8.88166 9.56813 9.23651C9.49092 9.44524 9.45231 9.72704 9.45231 10.0819V15.8534H5.9883C6.00234 13.0772 6.00936 10.8264 6.00936 9.10083C6.00936 7.37528 6.00585 6.34552 5.99883 6.01154L5.9883 5.51058H9.45231V7.01347H9.43125C9.57164 6.79082 9.71553 6.596 9.86294 6.42901C10.0103 6.26202 10.2086 6.08112 10.4578 5.8863C10.707 5.69148 11.0123 5.54014 11.3738 5.4323C11.7353 5.32445 12.1372 5.27053 12.5794 5.27053C13.7797 5.27053 14.7448 5.66539 15.4748 6.4551C16.2048 7.24482 16.5698 8.40156 16.5698 9.92533Z" fill="white"/>
</g>
<defs>
<clipPath id="clip0">
<rect width="16.1724" height="15.3212" fill="white" transform="translate(0.397461 0.532227)"/>
</clipPath>
</defs>
</svg>
