<svg width="15" height="19" viewBox="0 0 15 19" fill="none" xmlns="http://www.w3.org/2000/svg">
<g clip-path="url(#clip0)">
<path d="M0.551758 7.94522C0.551758 7.17179 0.684754 6.44313 0.950747 5.75922C1.21674 5.07531 1.58381 4.47912 2.05196 3.97067C2.52011 3.46221 3.05919 3.02179 3.6692 2.6494C4.27921 2.27701 4.93532 1.99772 5.63755 1.81152C6.33977 1.62532 7.05618 1.53223 7.78677 1.53223C8.90749 1.53223 9.95018 1.77034 10.9149 2.24657C11.8795 2.7228 12.6633 3.41566 13.2662 4.32516C13.8691 5.23465 14.1706 6.2623 14.1706 7.40812C14.1706 8.09561 14.1032 8.76877 13.9685 9.42762C13.8337 10.0865 13.6209 10.7202 13.3301 11.329C13.0392 11.9377 12.6846 12.473 12.2661 12.9349C11.8476 13.3968 11.3333 13.7656 10.7233 14.0413C10.1133 14.317 9.44302 14.4549 8.71243 14.4549C8.23009 14.4549 7.75131 14.3403 7.27606 14.1111C6.80082 13.882 6.46035 13.5669 6.25465 13.1658C6.18372 13.4451 6.08441 13.848 5.95674 14.3743C5.82906 14.9007 5.74572 15.2408 5.7067 15.3948C5.66769 15.5488 5.59499 15.803 5.48859 16.1575C5.38219 16.512 5.28998 16.7662 5.21196 16.9202C5.13393 17.0742 5.02044 17.2979 4.87149 17.5916C4.72253 17.8852 4.55939 18.1627 4.38206 18.4241C4.20473 18.6855 3.98484 18.9952 3.7224 19.3533L3.57344 19.407L3.47768 19.2995C3.37129 18.1752 3.31809 17.502 3.31809 17.28C3.31809 16.6212 3.39434 15.8818 3.54684 15.0618C3.69934 14.2418 3.93519 13.2124 4.25438 11.9735C4.57357 10.7346 4.758 10.0077 4.80765 9.79285C4.58067 9.32736 4.46718 8.72223 4.46718 7.97745C4.46718 7.38305 4.6516 6.82447 5.02044 6.30169C5.38929 5.77891 5.85743 5.51752 6.42489 5.51752C6.85757 5.51752 7.19449 5.66254 7.43566 5.95257C7.67683 6.24261 7.79741 6.60963 7.79741 7.05363C7.79741 7.52628 7.64136 8.21019 7.32926 9.10536C7.01716 10.0005 6.86111 10.6701 6.86111 11.1141C6.86111 11.5653 7.02071 11.9395 7.3399 12.2367C7.65909 12.5339 8.04567 12.6825 8.49963 12.6825C8.88976 12.6825 9.25151 12.5929 9.58488 12.4139C9.91826 12.2349 10.1967 11.9914 10.4201 11.6834C10.6435 11.3755 10.8421 11.0353 11.0159 10.663C11.1897 10.2906 11.3245 9.8949 11.4202 9.47596C11.516 9.05702 11.5869 8.65957 11.633 8.2836C11.6791 7.90762 11.7022 7.55135 11.7022 7.21476C11.7022 5.97585 11.3138 5.01086 10.5371 4.31979C9.76044 3.62872 8.74789 3.28318 7.4995 3.28318C6.08087 3.28318 4.89631 3.74688 3.94583 4.67427C2.99535 5.60167 2.52011 6.77792 2.52011 8.20303C2.52011 8.51813 2.56444 8.82249 2.6531 9.1161C2.74177 9.40972 2.83753 9.64246 2.94038 9.81433C3.04323 9.98621 3.13898 10.1491 3.22765 10.3031C3.31631 10.4571 3.36065 10.5663 3.36065 10.6307C3.36065 10.8312 3.30745 11.0926 3.20105 11.4149C3.09465 11.7372 2.96343 11.8983 2.80738 11.8983C2.79319 11.8983 2.7329 11.8875 2.6265 11.8661C2.26475 11.7586 1.94379 11.5581 1.66361 11.2645C1.38343 10.9709 1.16709 10.6325 1.01459 10.2494C0.862083 9.86625 0.74682 9.47954 0.668795 9.08924C0.59077 8.69895 0.551758 8.31761 0.551758 7.94522Z" fill="white"/>
</g>
<defs>
<clipPath id="clip0">
<rect width="13.6188" height="17.8747" fill="white" transform="translate(0.551758 0.681152)"/>
</clipPath>
</defs>
</svg>
